<?xml version="1.0" encoding="utf-8"?>
<!-- Generator: Adobe Illustrator 25.0.0, SVG Export Plug-In . SVG Version: 6.00 Build 0)  -->
<svg version="1.1" id="Capa_1" xmlns:mydata="http://www.w3.org/2000/svg"
	 xmlns="http://www.w3.org/2000/svg" xmlns:xlink="http://www.w3.org/1999/xlink" x="0px" y="0px" viewBox="0 0 550 202"
	 style="enable-background:new 0 0 550 202;" xml:space="preserve">
<style type="text/css">
	.st0{fill:#2FDDE0;}
	.st1{fill-rule:evenodd;clip-rule:evenodd;fill:#2FDDE0;}
</style>
<g>
	<g>
		<g>
			<path class="st0" d="M289.1,171.5v3.4c-0.7,0.4-1.3,0.7-1.9,1c-0.6,0.3-1.3,0.5-1.9,0.7c-0.7,0.2-1.4,0.4-2,0.5s-1.3,0.1-1.9,0.1
				c-3.4,0-6.3-1-8.5-3.1c-2.3-2.1-3.4-4.8-3.4-8.1c0-3.2,1.1-5.9,3.4-8c1.1-1.1,2.4-1.9,3.8-2.4c1.4-0.5,2.9-0.8,4.6-0.8
				c1.2,0,2.4,0.2,3.7,0.5c0.7,0.2,1.3,0.4,1.9,0.6s1.3,0.5,2,0.9v3.5c-1-0.6-1.8-1-2.5-1.3c-0.6-0.3-1.2-0.5-1.8-0.7
				c-1.2-0.4-2.4-0.5-3.6-0.5c-2.4,0-4.4,0.8-5.9,2.4c-1.6,1.6-2.4,3.5-2.4,5.9c0,2.5,0.8,4.4,2.3,6c1.6,1.5,3.6,2.3,6.1,2.3
				c1.4,0,2.6-0.2,3.8-0.6c0.3-0.1,0.6-0.2,0.9-0.3c0.3-0.1,0.6-0.3,0.9-0.4c0.3-0.2,0.7-0.3,1.1-0.6
				C288.2,172,288.6,171.8,289.1,171.5L289.1,171.5z"/>
			<path class="st0" d="M305.8,163.4c0.4-0.3,0.6-0.6,0.8-1c0.2-0.4,0.3-0.8,0.3-1.4c0-1-0.4-1.8-1.1-2.3c-0.8-0.6-1.9-0.9-3.4-0.9
				h-2.8v6.5h2.6c0.8,0,1.5-0.1,2.1-0.2C304.9,163.9,305.4,163.7,305.8,163.4L305.8,163.4z M309.6,169.8l4.6,7h-3.7l-3.8-5.9
				c-0.4-0.6-0.7-1.1-1.1-1.6c-0.3-0.5-0.7-0.9-1-1.3c-0.6-0.7-1.4-1-2.6-1h-2.4v9.8h-3.1v-21.9h5.9c1.1,0,2.2,0.1,3.1,0.4
				c0.9,0.2,1.7,0.6,2.4,1.1c0.7,0.5,1.2,1.2,1.6,2c0.3,0.8,0.5,1.6,0.5,2.6c0,1.5-0.5,2.7-1.4,3.7c-0.6,0.6-1.2,1.1-1.8,1.4
				c0.2,0.2,0.3,0.3,0.5,0.5c0.1,0.2,0.3,0.4,0.5,0.6c0.3,0.5,0.6,0.9,0.9,1.3C309,169,309.3,169.4,309.6,169.8L309.6,169.8z"/>
			<path class="st0" d="M339.4,154.9v12.3c0,1.4-0.2,2.7-0.6,3.9c-0.4,1.2-1.1,2.2-1.9,3.2c-1.7,1.9-4,2.8-6.7,2.8
				c-2.7,0-5-0.9-6.7-2.7c-1.7-1.8-2.6-4.2-2.6-7v-12.5h3.1v12.3c0,1.1,0.1,2.1,0.4,2.9c0.3,0.8,0.7,1.5,1.3,2.1
				c1.1,1.2,2.6,1.8,4.6,1.8c1.9,0,3.4-0.6,4.5-1.9c0.5-0.6,1-1.4,1.2-2.2c0.3-0.8,0.4-1.8,0.4-2.9v-12.2H339.4z"/>
			<path class="st0" d="M363.3,171.8c1.6-1.5,2.4-3.4,2.4-5.9s-0.8-4.4-2.3-5.9c-1.6-1.5-3.7-2.2-6.3-2.2h-4.8V174h4.7
				C359.6,174,361.7,173.3,363.3,171.8z M365.6,157.9c1.1,1,1.9,2.2,2.4,3.5c0.5,1.3,0.8,2.9,0.8,4.6c0,3.2-1,5.8-3.1,7.9
				c-1,1-2.3,1.8-3.7,2.3c-1.4,0.5-3,0.7-4.8,0.7h-8.2v-21.9h8c1.8,0,3.4,0.2,4.8,0.7C363.3,156.1,364.5,156.9,365.6,157.9
				L365.6,157.9z"/>
			<path class="st0" d="M405.6,166.8c0.9,1,1.3,2.4,1.3,4.1c0,1.7-0.6,3.2-1.9,4.4c-1.3,1.2-2.8,1.8-4.6,1.8c-1.3,0-2.4-0.2-3.5-0.7
				c-0.5-0.2-0.9-0.4-1.3-0.7c-0.4-0.2-0.8-0.5-1.2-0.8v-3.7c0.5,0.4,1,0.7,1.4,1c0.4,0.3,0.7,0.5,1,0.7c0.3,0.2,0.6,0.3,0.8,0.4
				c0.2,0.1,0.4,0.2,0.6,0.3c0.7,0.3,1.4,0.5,2,0.5c1,0,1.9-0.3,2.6-1c0.7-0.7,1-1.4,1-2.4c0-0.5-0.1-1-0.2-1.3
				c-0.1-0.4-0.4-0.7-0.7-0.9c-0.4-0.3-0.8-0.6-1.4-0.9c-0.6-0.3-1.3-0.6-2.1-0.9c-1.7-0.6-3-1.3-3.9-2.2c-0.5-0.5-0.8-1.1-1.1-1.7
				c-0.2-0.7-0.3-1.4-0.3-2.2c0-1.7,0.7-3.1,2-4.3c1.3-1.2,2.8-1.8,4.6-1.8c1.3,0,2.4,0.2,3.4,0.6c0.5,0.2,0.9,0.3,1.2,0.5
				s0.6,0.4,0.9,0.6l0.1,3.5c-0.4-0.2-0.7-0.4-1-0.6c-0.3-0.2-0.5-0.3-0.8-0.4s-0.4-0.2-0.6-0.3c-0.2-0.1-0.4-0.2-0.6-0.3
				c-0.7-0.3-1.5-0.5-2.4-0.5c-1,0-1.9,0.3-2.5,0.9c-0.7,0.7-1,1.4-1,2.2c0,0.5,0.1,0.9,0.2,1.2s0.3,0.6,0.5,0.8
				c0.6,0.5,1.6,1.1,3.1,1.6c1.1,0.4,2,0.8,2.7,1.2S405.2,166.3,405.6,166.8L405.6,166.8z"/>
			<path class="st0" d="M430.5,154.9h3.9l-8.8,10.5v11.4h-3.1v-11.4l-8.8-10.5h3.9l6.5,7.7L430.5,154.9z"/>
			<path class="st0" d="M451.6,166.8c0.9,1,1.3,2.4,1.3,4.1c0,1.7-0.6,3.2-1.9,4.4c-1.3,1.2-2.8,1.8-4.6,1.8c-1.3,0-2.4-0.2-3.5-0.7
				c-0.5-0.2-0.9-0.4-1.3-0.7c-0.4-0.2-0.8-0.5-1.2-0.8v-3.7c0.5,0.4,1,0.7,1.4,1c0.4,0.3,0.7,0.5,1,0.7c0.3,0.2,0.6,0.3,0.8,0.4
				c0.2,0.1,0.4,0.2,0.6,0.3c0.7,0.3,1.4,0.5,2,0.5c1,0,1.9-0.3,2.6-1c0.7-0.7,1-1.4,1-2.4c0-0.5-0.1-1-0.2-1.3
				c-0.1-0.4-0.4-0.7-0.7-0.9c-0.4-0.3-0.8-0.6-1.4-0.9c-0.6-0.3-1.3-0.6-2.1-0.9c-1.7-0.6-3-1.3-3.9-2.2c-0.5-0.5-0.8-1.1-1.1-1.7
				c-0.2-0.7-0.3-1.4-0.3-2.2c0-1.7,0.7-3.1,2-4.3c1.3-1.2,2.8-1.8,4.6-1.8c1.3,0,2.4,0.2,3.4,0.6c0.5,0.2,0.9,0.3,1.2,0.5
				s0.6,0.4,0.9,0.6l0.1,3.5c-0.4-0.2-0.7-0.4-1-0.6c-0.3-0.2-0.5-0.3-0.8-0.4s-0.4-0.2-0.6-0.3c-0.2-0.1-0.4-0.2-0.6-0.3
				c-0.7-0.3-1.5-0.5-2.4-0.5c-1,0-1.9,0.3-2.5,0.9c-0.7,0.7-1,1.4-1,2.2c0,0.5,0.1,0.9,0.2,1.2c0.1,0.3,0.3,0.6,0.5,0.8
				c0.6,0.5,1.6,1.1,3.1,1.6c1.1,0.4,2,0.8,2.7,1.2S451.1,166.3,451.6,166.8L451.6,166.8z"/>
			<path class="st0" d="M478.3,154.9v2.8h-7.7v19.1h-3.1v-19.1h-7.7v-2.8H478.3z"/>
			<path class="st0" d="M499.3,174v2.8h-12.9v-21.9h12.7v2.8h-9.6v6.7h9.3v2.8h-9.3v6.8L499.3,174z"/>
			<path class="st0" d="M528.7,154.9v21.9h-3.1v-16.8l-7,8.7l-7-8.7v16.8h-3.1v-21.9h2.7l7.4,9.1l7.4-9.1H528.7z"/>
		</g>
		<g>
			<path class="st0" d="M311.9,128.7c24.1,0,44.9-11.7,44.9-31.5c0-25-25.1-29-44.9-31c-8.9-1.1-20.1-2.3-20.1-7.7
				c0-8.1,8.2-8.9,20.1-8.9c10.8,0,22.3,2.4,33.4,6.8l9.7-21.3c-12.8-5.3-28.2-8.2-43.1-8.2c-24.3,0-44.7,11.8-44.7,31.6
				c0,24.9,26.6,27.4,44.7,29.5c12,1.3,20.2,2.3,20.2,9.2c0,5.1-6,7.6-20.2,7.6c-12.8,0-25.9-3.2-37.8-8.8l-9.8,21.5
				C278.4,124.7,295,128.7,311.9,128.7L311.9,128.7z"/>
			<path class="st0" d="M403.4,128.5c7.3,0,13.3-6,13.3-13.3s-6-13.3-13.3-13.3s-13.3,6-13.3,13.3S396,128.5,403.4,128.5z"/>
			<path class="st0" d="M500.7,128.5c16.5,0,31.1-7.8,40.3-19.9L522,94c-4.9,6.4-12.6,10.5-21.3,10.5c-14.8,0-26.9-12.1-26.9-26.9
				s12.1-26.9,26.9-26.9c8.1,0,15.3,3.6,20.2,9.3l18.2-15.7c-9.3-10.8-23.1-17.6-38.4-17.6c-28.1,0-50.8,22.7-50.8,50.8
				S472.6,128.5,500.7,128.5L500.7,128.5z"/>
		</g>
		<g>
			<path class="st1" d="M199.3,21.9c0-8.2-6.7-14.9-14.9-14.9h-61.6c-8.2,0-10.1,4.7-4.3,10.5l15,15c5.8,5.8,5.8,15.2,0,21l-29,29
				c-5.8,5.8-6.2,14.8-0.9,20.1c5.3,5.3,14.4,4.9,20.2-0.9l29-29c5.8-5.8,15.2-5.8,21,0l15.1,15.1c5.8,5.8,10.5,3.8,10.5-4.3
				L199.3,21.9z M159.9,95.7c-6.2,6.2-11,13.1-10.8,15.5v2.2c0,31.1-25.3,56.4-56.4,56.4c-31.1,0-56.4-25.3-56.4-56.4
				c0-31.1,25.3-56.4,56.4-56.4H95c2.5,0.3,9.6-4.6,15.8-10.7c6.1-6.1,2.6-13.6-7.8-16.6H92.7C46.6,29.6,9,67.2,9,113.3
				C9,159.5,46.6,197,92.7,197c46.1,0,83.7-37.5,83.7-83.7l0-10.1C173.5,92.9,166.1,89.5,159.9,95.7z"/>
		</g>
	</g>
</g>
</svg>
